<?xml version="1.0" encoding="utf-8"?>
<!-- Generator: Adobe Illustrator 27.0.1, SVG Export Plug-In . SVG Version: 6.00 Build 0)  -->
<svg version="1.1" id="图层_1" xmlns="http://www.w3.org/2000/svg" xmlns:xlink="http://www.w3.org/1999/xlink" x="0px" y="0px"
	 viewBox="0 0 66 66" style="enable-background:new 0 0 66 66;" xml:space="preserve">
<path d="M8,8h2v2H8V8z M10,8h2v2h-2V8z M12,8h2v2h-2V8z M14,8h2v2h-2V8z M16,8h2v2h-2V8z M18,8h2v2h-2V8z M20,8h2v2h-2V8z M24,8h2v2
	h-2V8z M28,8h2v2h-2V8z M34,8h2v2h-2V8z M38,8h2v2h-2V8z M40,8h2v2h-2V8z M44,8h2v2h-2V8z M46,8h2v2h-2V8z M48,8h2v2h-2V8z M50,8h2
	v2h-2V8z M52,8h2v2h-2V8z M54,8h2v2h-2V8z M56,8h2v2h-2V8z M8,10h2v2H8V10z M20,10h2v2h-2V10z M24,10h2v2h-2V10z M26,10h2v2h-2V10z
	 M28,10h2v2h-2V10z M32,10h2v2h-2V10z M34,10h2v2h-2V10z M44,10h2v2h-2V10z M56,10h2v2h-2V10z M8,12h2v2H8V12z M12,12h2v2h-2V12z
	 M14,12h2v2h-2V12z M16,12h2v2h-2V12z M20,12h2v2h-2V12z M24,12h2v2h-2V12z M26,12h2v2h-2V12z M28,12h2v2h-2V12z M30,12h2v2h-2V12z
	 M36,12h2v2h-2V12z M38,12h2v2h-2V12z M40,12h2v2h-2V12z M44,12h2v2h-2V12z M48,12h2v2h-2V12z M50,12h2v2h-2V12z M52,12h2v2h-2V12z
	 M56,12h2v2h-2V12z M8,14h2v2H8V14z M12,14h2v2h-2V14z M14,14h2v2h-2V14z M16,14h2v2h-2V14z M20,14h2v2h-2V14z M24,14h2v2h-2V14z
	 M26,14h2v2h-2V14z M30,14h2v2h-2V14z M32,14h2v2h-2V14z M34,14h2v2h-2V14z M44,14h2v2h-2V14z M48,14h2v2h-2V14z M50,14h2v2h-2V14z
	 M52,14h2v2h-2V14z M56,14h2v2h-2V14z M8,16h2v2H8V16z M12,16h2v2h-2V16z M14,16h2v2h-2V16z M16,16h2v2h-2V16z M20,16h2v2h-2V16z
	 M26,16h2v2h-2V16z M28,16h2v2h-2V16z M36,16h2v2h-2V16z M38,16h2v2h-2V16z M44,16h2v2h-2V16z M48,16h2v2h-2V16z M50,16h2v2h-2V16z
	 M52,16h2v2h-2V16z M56,16h2v2h-2V16z M8,18h2v2H8V18z M20,18h2v2h-2V18z M24,18h2v2h-2V18z M26,18h2v2h-2V18z M40,18h2v2h-2V18z
	 M44,18h2v2h-2V18z M56,18h2v2h-2V18z M8,20h2v2H8V20z M10,20h2v2h-2V20z M12,20h2v2h-2V20z M14,20h2v2h-2V20z M16,20h2v2h-2V20z
	 M18,20h2v2h-2V20z M20,20h2v2h-2V20z M24,20h2v2h-2V20z M28,20h2v2h-2V20z M32,20h2v2h-2V20z M36,20h2v2h-2V20z M40,20h2v2h-2V20z
	 M44,20h2v2h-2V20z M46,20h2v2h-2V20z M48,20h2v2h-2V20z M50,20h2v2h-2V20z M52,20h2v2h-2V20z M54,20h2v2h-2V20z M56,20h2v2h-2V20z
	 M26,22h2v2h-2V22z M28,22h2v2h-2V22z M32,22h2v2h-2V22z M38,22h2v2h-2V22z M8,24h2v2H8V24z M10,24h2v2h-2V24z M16,24h2v2h-2V24z
	 M18,24h2v2h-2V24z M20,24h2v2h-2V24z M26,24h2v2h-2V24z M40,24h2v2h-2V24z M46,24h2v2h-2V24z M50,24h2v2h-2V24z M52,24h2v2h-2V24z
	 M54,24h2v2h-2V24z M56,24h2v2h-2V24z M10,26h2v2h-2V26z M14,26h2v2h-2V26z M16,26h2v2h-2V26z M18,26h2v2h-2V26z M22,26h2v2h-2V26z
	 M26,26h2v2h-2V26z M30,26h2v2h-2V26z M32,26h2v2h-2V26z M34,26h2v2h-2V26z M36,26h2v2h-2V26z M38,26h2v2h-2V26z M42,26h2v2h-2V26z
	 M46,26h2v2h-2V26z M48,26h2v2h-2V26z M50,26h2v2h-2V26z M54,26h2v2h-2V26z M10,28h2v2h-2V28z M12,28h2v2h-2V28z M14,28h2v2h-2V28z
	 M16,28h2v2h-2V28z M18,28h2v2h-2V28z M20,28h2v2h-2V28z M24,28h2v2h-2V28z M30,28h2v2h-2V28z M32,28h2v2h-2V28z M34,28h2v2h-2V28z
	 M38,28h2v2h-2V28z M40,28h2v2h-2V28z M50,28h2v2h-2V28z M52,28h2v2h-2V28z M8,30h2v2H8V30z M12,30h2v2h-2V30z M14,30h2v2h-2V30z
	 M22,30h2v2h-2V30z M26,30h2v2h-2V30z M30,30h2v2h-2V30z M36,30h2v2h-2V30z M42,30h2v2h-2V30z M46,30h2v2h-2V30z M52,30h2v2h-2V30z
	 M54,30h2v2h-2V30z M8,32h2v2H8V32z M20,32h2v2h-2V32z M22,32h2v2h-2V32z M24,32h2v2h-2V32z M38,32h2v2h-2V32z M44,32h2v2h-2V32z
	 M50,32h2v2h-2V32z M52,32h2v2h-2V32z M54,32h2v2h-2V32z M56,32h2v2h-2V32z M8,34h2v2H8V34z M10,34h2v2h-2V34z M12,34h2v2h-2V34z
	 M16,34h2v2h-2V34z M18,34h2v2h-2V34z M24,34h2v2h-2V34z M26,34h2v2h-2V34z M30,34h2v2h-2V34z M32,34h2v2h-2V34z M36,34h2v2h-2V34z
	 M38,34h2v2h-2V34z M42,34h2v2h-2V34z M46,34h2v2h-2V34z M48,34h2v2h-2V34z M54,34h2v2h-2V34z M18,36h2v2h-2V36z M20,36h2v2h-2V36z
	 M26,36h2v2h-2V36z M30,36h2v2h-2V36z M34,36h2v2h-2V36z M36,36h2v2h-2V36z M38,36h2v2h-2V36z M40,36h2v2h-2V36z M42,36h2v2h-2V36z
	 M46,36h2v2h-2V36z M48,36h2v2h-2V36z M50,36h2v2h-2V36z M52,36h2v2h-2V36z M14,38h2v2h-2V38z M22,38h2v2h-2V38z M28,38h2v2h-2V38z
	 M32,38h2v2h-2V38z M44,38h2v2h-2V38z M46,38h2v2h-2V38z M48,38h2v2h-2V38z M52,38h2v2h-2V38z M54,38h2v2h-2V38z M8,40h2v2H8V40z
	 M10,40h2v2h-2V40z M12,40h2v2h-2V40z M18,40h2v2h-2V40z M20,40h2v2h-2V40z M24,40h2v2h-2V40z M26,40h2v2h-2V40z M30,40h2v2h-2V40z
	 M32,40h2v2h-2V40z M36,40h2v2h-2V40z M40,40h2v2h-2V40z M42,40h2v2h-2V40z M44,40h2v2h-2V40z M46,40h2v2h-2V40z M48,40h2v2h-2V40z
	 M50,40h2v2h-2V40z M52,40h2v2h-2V40z M24,42h2v2h-2V42z M26,42h2v2h-2V42z M36,42h2v2h-2V42z M38,42h2v2h-2V42z M40,42h2v2h-2V42z
	 M48,42h2v2h-2V42z M8,44h2v2H8V44z M10,44h2v2h-2V44z M12,44h2v2h-2V44z M14,44h2v2h-2V44z M16,44h2v2h-2V44z M18,44h2v2h-2V44z
	 M20,44h2v2h-2V44z M28,44h2v2h-2V44z M30,44h2v2h-2V44z M32,44h2v2h-2V44z M34,44h2v2h-2V44z M36,44h2v2h-2V44z M40,44h2v2h-2V44z
	 M44,44h2v2h-2V44z M48,44h2v2h-2V44z M8,46h2v2H8V46z M20,46h2v2h-2V46z M24,46h2v2h-2V46z M30,46h2v2h-2V46z M36,46h2v2h-2V46z
	 M40,46h2v2h-2V46z M48,46h2v2h-2V46z M50,46h2v2h-2V46z M52,46h2v2h-2V46z M54,46h2v2h-2V46z M8,48h2v2H8V48z M12,48h2v2h-2V48z
	 M14,48h2v2h-2V48z M16,48h2v2h-2V48z M20,48h2v2h-2V48z M24,48h2v2h-2V48z M28,48h2v2h-2V48z M32,48h2v2h-2V48z M40,48h2v2h-2V48z
	 M42,48h2v2h-2V48z M44,48h2v2h-2V48z M46,48h2v2h-2V48z M48,48h2v2h-2V48z M50,48h2v2h-2V48z M52,48h2v2h-2V48z M56,48h2v2h-2V48z
	 M8,50h2v2H8V50z M12,50h2v2h-2V50z M14,50h2v2h-2V50z M16,50h2v2h-2V50z M20,50h2v2h-2V50z M34,50h2v2h-2V50z M36,50h2v2h-2V50z
	 M42,50h2v2h-2V50z M44,50h2v2h-2V50z M46,50h2v2h-2V50z M52,50h2v2h-2V50z M8,52h2v2H8V52z M12,52h2v2h-2V52z M14,52h2v2h-2V52z
	 M16,52h2v2h-2V52z M20,52h2v2h-2V52z M26,52h2v2h-2V52z M28,52h2v2h-2V52z M30,52h2v2h-2V52z M32,52h2v2h-2V52z M40,52h2v2h-2V52z
	 M44,52h2v2h-2V52z M50,52h2v2h-2V52z M54,52h2v2h-2V52z M8,54h2v2H8V54z M20,54h2v2h-2V54z M24,54h2v2h-2V54z M26,54h2v2h-2V54z
	 M32,54h2v2h-2V54z M36,54h2v2h-2V54z M38,54h2v2h-2V54z M42,54h2v2h-2V54z M46,54h2v2h-2V54z M48,54h2v2h-2V54z M50,54h2v2h-2V54z
	 M52,54h2v2h-2V54z M54,54h2v2h-2V54z M8,56h2v2H8V56z M10,56h2v2h-2V56z M12,56h2v2h-2V56z M14,56h2v2h-2V56z M16,56h2v2h-2V56z
	 M18,56h2v2h-2V56z M20,56h2v2h-2V56z M24,56h2v2h-2V56z M26,56h2v2h-2V56z M30,56h2v2h-2V56z M32,56h2v2h-2V56z M36,56h2v2h-2V56z
	 M38,56h2v2h-2V56z M44,56h2v2h-2V56z M52,56h2v2h-2V56z M54,56h2v2h-2V56z M56,56h2v2h-2V56z"/>
</svg>
